<?xml version="1.0" encoding="UTF-8" standalone="no"?>
<!-- Created with Inkscape (http://www.inkscape.org/) -->

<svg
   version="1.1"
   id="svg2"
   width="327.47995"
   height="486.28653"
   viewBox="0 0 327.47995 486.28653"
   xml:space="preserve"
   xmlns="http://www.w3.org/2000/svg"
   xmlns:svg="http://www.w3.org/2000/svg"><defs
     id="defs6"><clipPath
       clipPathUnits="userSpaceOnUse"
       id="clipPath1683"><path
         d="m 324.80731,90.962499 c -29.51117,2.409075 -62.63595,12.120651 -93.65278,27.403221 -39.97559,19.64902 -61.58198,41.48126 -74.90718,75.66001 -4.81814,12.34651 -6.70023,19.04674 -12.04537,42.53522 -2.48436,10.76556 -5.87212,23.94018 -7.67892,29.3606 -2.71021,8.13063 -3.2372,10.84084 -3.2372,15.80955 -0.0753,5.94741 0,6.17326 4.29117,14.15332 3.68889,6.92609 4.29116,8.65761 4.29116,12.12066 0,5.4957 -1.43039,8.50704 -8.28119,17.76692 -3.2372,4.36645 -9.48574,13.62633 -13.92747,20.62771 -4.51701,6.92608 -11.29254,16.71295 -15.20728,21.68167 -4.893441,6.32382 -7.377801,10.23857 -8.130631,12.87349 -1.43039,4.81815 -1.43039,5.4957 0.30113,9.33517 1.95738,4.21588 5.570991,5.9474 14.454451,7.07665 7.98007,0.9034 11.36783,2.10795 14.52974,5.04401 4.44173,4.21587 5.34513,10.16328 2.71021,17.84221 -2.7855,8.20591 -1.43039,12.7982 5.11928,17.16465 3.6889,2.48436 3.91475,3.53833 1.27982,6.09797 -1.58096,1.65624 -1.88209,2.55964 -1.88209,6.62496 0.0753,8.35648 2.25851,11.51839 12.64765,17.54108 5.9474,3.46304 8.80817,7.45307 8.80817,12.3465 0,3.38776 -0.60227,4.89344 -6.09797,15.05672 -5.19456,9.78686 -0.9034,20.40185 10.76555,26.34926 7.75422,3.91474 17.9175,4.66758 40.50258,2.93606 10.31384,-0.75284 13.02405,-0.67755 18.97146,0.30113 11.8948,2.03266 19.7243,6.92609 23.26263,14.52973 2.03266,4.29116 2.33379,10.23857 1.05397,20.55242 -1.35511,10.38913 0.30113,14.75559 10.23857,27.77964 3.08662,4.06532 5.4957,8.2812 7.07665,12.4218 5.19457,13.40048 13.17463,50.36472 17.46579,80.55344 l 1.65625,11.74424 9.78686,-3.38777 c 63.84048,-22.13337 123.3898,-65.64729 165.39804,-120.83015 2.48436,-3.16191 4.44173,-6.17326 4.44173,-6.62496 0,-0.4517 -2.2585,-5.64627 -4.96871,-11.51839 -8.35648,-17.91749 -12.64765,-33.57648 -14.6803,-53.60191 -1.65624,-16.56239 0.22585,-39.4486 4.51701,-55.78514 0.97869,-3.76418 2.93606,-7.82949 6.24854,-13.17463 24.76832,-39.67445 41.18011,-82.5861 47.57925,-124.51905 6.2485,-40.72842 3.31244,-73.32621 -10.46446,-114.50633 C 479.74093,166.39665 473.71823,155.6311 460.84475,141.32722 442.92726,121.37707 421.54672,108.353 389.77704,98.114443 368.99877,91.414201 347.46767,89.08041 324.80731,90.962499 Z"
         id="path1685"
         style="display:none;fill:#000000;stroke:none;stroke-width:0.0752834" /><path
         id="lpe_path-effect1687"
         style="fill:#000000;stroke:none;stroke-width:0.0752834"
         class="powerclip"
         d="M 13.572747,85.334484 H 428.92275 V 697.253 H 13.572747 Z m 311.234563,5.628015 c -29.51117,2.409075 -62.63595,12.120651 -93.65278,27.403221 -39.97559,19.64902 -61.58198,41.48126 -74.90718,75.66001 -4.81814,12.34651 -6.70023,19.04674 -12.04537,42.53522 -2.48436,10.76556 -5.87212,23.94018 -7.67892,29.3606 -2.71021,8.13063 -3.2372,10.84084 -3.2372,15.80955 -0.0753,5.94741 0,6.17326 4.29117,14.15332 3.68889,6.92609 4.29116,8.65761 4.29116,12.12066 0,5.4957 -1.43039,8.50704 -8.28119,17.76692 -3.2372,4.36645 -9.48574,13.62633 -13.92747,20.62771 -4.51701,6.92608 -11.29254,16.71295 -15.20728,21.68167 -4.893441,6.32382 -7.377801,10.23857 -8.130631,12.87349 -1.43039,4.81815 -1.43039,5.4957 0.30113,9.33517 1.95738,4.21588 5.570991,5.9474 14.454451,7.07665 7.98007,0.9034 11.36783,2.10795 14.52974,5.04401 4.44173,4.21587 5.34513,10.16328 2.71021,17.84221 -2.7855,8.20591 -1.43039,12.7982 5.11928,17.16465 3.6889,2.48436 3.91475,3.53833 1.27982,6.09797 -1.58096,1.65624 -1.88209,2.55964 -1.88209,6.62496 0.0753,8.35648 2.25851,11.51839 12.64765,17.54108 5.9474,3.46304 8.80817,7.45307 8.80817,12.3465 0,3.38776 -0.60227,4.89344 -6.09797,15.05672 -5.19456,9.78686 -0.9034,20.40185 10.76555,26.34926 7.75422,3.91474 17.9175,4.66758 40.50258,2.93606 10.31384,-0.75284 13.02405,-0.67755 18.97146,0.30113 11.8948,2.03266 19.7243,6.92609 23.26263,14.52973 2.03266,4.29116 2.33379,10.23857 1.05397,20.55242 -1.35511,10.38913 0.30113,14.75559 10.23857,27.77964 3.08662,4.06532 5.4957,8.2812 7.07665,12.4218 5.19457,13.40048 13.17463,50.36472 17.46579,80.55344 l 1.65625,11.74424 9.78686,-3.38777 c 63.84048,-22.13337 123.3898,-65.64729 165.39804,-120.83015 2.48436,-3.16191 4.44173,-6.17326 4.44173,-6.62496 0,-0.4517 -2.2585,-5.64627 -4.96871,-11.51839 -8.35648,-17.91749 -12.64765,-33.57648 -14.6803,-53.60191 -1.65624,-16.56239 0.22585,-39.4486 4.51701,-55.78514 0.97869,-3.76418 2.93606,-7.82949 6.24854,-13.17463 24.76832,-39.67445 41.18011,-82.5861 47.57925,-124.51905 6.2485,-40.72842 3.31244,-73.32621 -10.46446,-114.50633 C 479.74093,166.39665 473.71823,155.6311 460.84475,141.32722 442.92726,121.37707 421.54672,108.353 389.77704,98.114443 368.99877,91.414201 347.46767,89.08041 324.80731,90.962499 Z" /></clipPath></defs><g
     id="g8"
     transform="translate(-64.689766,-104.68954)"><path
       d="m 248.09628,90.962983 c -29.51117,2.409075 -62.63595,12.120657 -93.65278,27.403227 -39.97559,19.64902 -61.581979,41.48126 -74.907179,75.66001 -4.81814,12.34651 -6.70023,19.04674 -12.04537,42.53522 -2.48436,10.76556 -5.87212,23.94018 -7.67892,29.3606 -2.71021,8.13063 -3.2372,10.84084 -3.2372,15.80955 -0.0753,5.94741 0,6.17326 4.29117,14.15332 3.68889,6.92609 4.29116,8.65761 4.29116,12.12066 0,5.4957 -1.43039,8.50704 -8.28119,17.76692 -3.2372,4.36645 -9.48574,13.62633 -13.92747,20.62771 -4.51701,6.92608 -11.29254,16.71295 -15.20728,21.68167 -4.89344,6.32382 -7.3778,10.23857 -8.13063,12.87349 -1.43039,4.81815 -1.43039,5.4957 0.30113,9.33517 1.95738,4.21588 5.57099,5.9474 14.45445,7.07665 7.98007,0.9034 11.36783,2.10795 14.52974,5.04401 4.44173,4.21587 5.34513,10.16328 2.71021,17.84221 -2.7855,8.20591 -1.43039,12.7982 5.11928,17.16465 3.6889,2.48436 3.91475,3.53833 1.27982,6.09797 -1.58096,1.65624 -1.88209,2.55964 -1.88209,6.62496 0.0753,8.35648 2.25851,11.51839 12.64765,17.54108 5.9474,3.46304 8.80817,7.45307 8.80817,12.3465 0,3.38776 -0.60227,4.89344 -6.09797,15.05672 -5.19456,9.78686 -0.9034,20.40185 10.76555,26.34926 7.75422,3.91474 17.917499,4.66758 40.502579,2.93606 10.31384,-0.75284 13.02405,-0.67755 18.97146,0.30113 11.8948,2.03266 19.7243,6.92609 23.26263,14.52973 2.03266,4.29116 2.33379,10.23857 1.05397,20.55242 -1.35511,10.38913 0.30113,14.75559 10.23857,27.77964 3.08662,4.06532 5.4957,8.2812 7.07665,12.4218 5.19457,13.40048 13.17463,50.36472 17.46579,80.55344 l 1.65625,11.74424 9.78686,-3.38777 c 63.84048,-22.13337 123.3898,-65.64729 165.39804,-120.83015 2.48436,-3.16191 4.44173,-6.17326 4.44173,-6.62496 0,-0.4517 -2.2585,-5.64627 -4.96871,-11.51839 -8.35648,-17.91749 -12.64765,-33.57648 -14.6803,-53.60191 -1.65624,-16.56239 0.22585,-39.4486 4.51701,-55.78514 0.97869,-3.76418 2.93606,-7.82949 6.24854,-13.17463 24.76832,-39.67445 41.18011,-82.5861 47.57925,-124.51905 6.2485,-40.72842 3.31244,-73.32621 -10.46446,-114.50633 -7.30249,-21.90753 -13.32519,-32.67308 -26.19867,-46.97696 -17.91749,-19.95015 -39.29803,-32.97422 -71.06771,-43.212786 -20.77827,-6.700239 -42.30937,-9.03403 -64.96973,-7.151941 z"
       id="path1277"
       style="fill:#000000;stroke:none;stroke-width:0.0752834"
       clip-path="url(#clipPath1683)"
       transform="matrix(0.80789427,0,0,0.80789427,49.684952,31.708824)" /></g></svg>
